<svg width="252" height="162" viewBox="0 0 252 162" xmlns="http://www.w3.org/2000/svg" xmlns:xlink="http://www.w3.org/1999/xlink"><defs><path id="a" d="M0 161.604h251.181V0H0z"/></defs><g fill="none" fill-rule="evenodd"><path fill="#B6B6B6" d="M72.266 142.387l-35.183-8.013V19.217l35.284-.846"/><path d="M10.95 81.881l61.315 60.372c.05.05.07.134 0 .134H1.5V18.371h70.867c.2 0-61.417 63.51-61.417 63.51" fill="#E8E7E8"/><path d="M3 140.887h65.708L8.837 81.905l1.037-1.069C27.857 62.3 59.99 29.151 68.886 19.871H3v121.016zm69.266 3H0V16.871h73.36l.388.916c.396.936.396.936-2.92 4.393a4017.74 4017.74 0 01-6.953 7.218 21199.057 21199.057 0 01-21.116 21.826 61174.447 61174.447 0 01-29.696 30.633l59.919 59.03-.716 3z" fill="#010202"/><path fill="#E8E7E8" d="M1.5 142.387l35.433-35.434V53.804L1.5 18.371z"/><path d="M3 21.993v116.773l32.433-32.433V54.426L3 21.993zM1.5 143.888a1.5 1.5 0 01-1.5-1.5V18.372a1.5 1.5 0 012.561-1.061l35.433 35.433a1.5 1.5 0 01.439 1.06v53.15a1.5 1.5 0 01-.439 1.06L2.561 143.448a1.5 1.5 0 01-1.061.44z" fill="#010202"/><path fill="#E8E7E8" d="M72.266 142.387L126.37 81.86 72.367 18.371"/><path d="M70.809 141.767l53.572-59.932-53.057-62.492c-.536-.63 2.037-2.472 2.037-2.472l54.152 64.016a1.5 1.5 0 01-.024 1.971l-55.223 61.03s-2.01-1.503-1.457-2.12" fill="#010202"/><path fill="#FFF" d="M159.575 80.934h-17.822"/><mask id="b" fill="#fff"><use xlink:href="#a"/></mask><path fill="#000" mask="url(#b)" d="M141.753 82.434h17.822v-3h-17.822z"/><path fill="#FFF" mask="url(#b)" d="M159.575 63.142h-17.822"/><path fill="#000" mask="url(#b)" d="M141.753 64.642h17.822v-3h-17.822z"/><path fill="#FFF" mask="url(#b)" d="M150.71 98.563h-8.958"/><path fill="#000" mask="url(#b)" d="M141.752 100.063h8.958v-3h-8.958z"/><path fill="#FFF" mask="url(#b)" d="M131.497 45.968H116.71 178.8"/><path fill="#000" mask="url(#b)" d="M116.71 47.468h62.089v-3H116.71z"/><path d="M159.602 63.521c13.274 0 13.828 17.792-.027 17.792 13.855 0 13.58 17.629-.023 17.629h-8.842c12.963 0 14.435 16.87 1.38 16.87H107.8c-4.753 0-9.067-.887-12.798-3.64-3.563-2.63-9.348-5.218-13.777-5.218h-8.959l.1-53.15c26.575 0 29.221-25.729 53.3-25.729v.557c0 8.353 6.517 17.336 0 17.336" fill="#FFF" mask="url(#b)"/><path d="M152.09 117.312H107.8c-5.703 0-10.053-1.25-13.689-3.933-3.316-2.448-8.808-4.925-12.887-4.925H70.866v-56.15h1.5c13.03 0 19.858-6.287 27.086-12.944 6.826-6.285 13.886-12.785 26.213-12.785h1.5v2.057c0 2.941.89 6.049 1.675 8.792 1.061 3.706 1.898 6.634.45 8.553-.745.989-1.965 1.491-3.625 1.491v-3c.63 0 1.09-.111 1.23-.297.548-.725-.277-3.607-.94-5.922-.758-2.648-1.606-5.615-1.763-8.639-10.252.489-16.31 6.067-22.707 11.957-7.072 6.512-14.377 13.237-27.619 13.711v50.176h7.358c4.947 0 11.072 2.857 14.67 5.511 3.092 2.284 6.876 3.347 11.905 3.347h44.291c2.47 0 4.482-.68 5.824-1.965 1.143-1.094 1.772-2.614 1.772-4.279 0-3.79-3.083-7.626-8.976-7.626v-3h8.842c6.052 0 8.81-3.829 8.81-7.386 0-3.605-2.718-7.243-8.788-7.243v-3c6.002 0 8.69-3.649 8.69-7.267 0-3.624-2.712-7.525-8.662-7.525v-3c7.655 0 11.661 5.295 11.661 10.525 0 3.324-1.652 6.817-5.173 8.75 3.588 1.924 5.271 5.428 5.271 8.76 0 5.161-4.057 10.386-11.809 10.386h-.34c2.284 2.051 3.474 4.884 3.474 7.626 0 2.491-.957 4.78-2.697 6.446-1.91 1.83-4.642 2.798-7.899 2.798" fill="#000" mask="url(#b)"/><path fill="#FFF" mask="url(#b)" d="M159.575 81.313h-16.289"/><path fill="#000" mask="url(#b)" d="M143.286 82.813h16.289v-3h-16.289z"/><path fill="#FFF" mask="url(#b)" d="M150.71 98.942h-7.425"/><path fill="#000" mask="url(#b)" d="M143.285 100.442h7.425v-3h-7.425z"/><path d="M159.575 81.313c13.855 0 13.302-17.792.027-17.792" fill="#FFF" mask="url(#b)"/><path d="M159.575 82.813v-3c2.777 0 5.067-.798 6.622-2.308 1.332-1.295 2.066-3.055 2.066-4.959 0-3.624-2.71-7.525-8.661-7.525v-3c7.656 0 11.66 5.295 11.66 10.525 0 2.722-1.056 5.247-2.975 7.112-2.125 2.064-5.138 3.155-8.712 3.155" fill="#000" mask="url(#b)"/><path d="M159.552 98.942c13.603 0 13.878-17.63.022-17.63" fill="#FFF" mask="url(#b)"/><path d="M159.552 100.442v-3c2.773 0 5.081-.815 6.675-2.36a6.943 6.943 0 002.134-5.026c0-3.605-2.717-7.243-8.787-7.243v-3c8.098 0 11.787 5.31 11.787 10.243a9.916 9.916 0 01-3.047 7.182c-2.164 2.097-5.195 3.204-8.762 3.204" fill="#000" mask="url(#b)"/><path fill="#FFF" mask="url(#b)" d="M36.933 106.954h35.433V53.805H36.933z"/><path fill="#E8E7E8" mask="url(#b)" d="M36.934 106.953h8.858V53.804h-8.858z"/><path d="M38.433 105.454h32.433V55.305H38.433v50.149zm33.933 3H36.933a1.5 1.5 0 01-1.5-1.5v-53.15a1.5 1.5 0 011.5-1.5h35.433a1.5 1.5 0 011.5 1.5v53.15a1.5 1.5 0 01-1.5 1.5z" fill="#010202" mask="url(#b)"/><path d="M168.263 72.546c0-3.624-2.71-7.525-8.66-7.525h-6.949c2.611.431 7.267 1.974 7.267 7.541 0 5.316-4.247 6.825-6.9 7.251h6.554c6.001 0 8.688-3.65 8.688-7.267M150.71 100.586h-7.188c2.618.441 7.226 1.997 7.226 7.535 0 5.164-4.004 6.732-6.666 7.208l6.625-.03c2.613 0 4.774-.799 6.256-2.309 1.293-1.317 2.005-3.1 2.005-5.022 0-3.556-2.584-7.382-8.258-7.382M159.575 82.945h-7.018c2.59.409 7.365 1.922 7.365 7.558 0 4.753-3.394 6.458-6.01 7.07h5.64c2.774 0 5.082-.815 6.675-2.358a6.943 6.943 0 002.134-5.027c0-3.605-2.717-7.243-8.786-7.243" fill="#E2E0D5" mask="url(#b)"/><path d="M50.247 89.29a4.402 4.402 0 11.001 8.805 4.402 4.402 0 010-8.805" fill="#E3120B" mask="url(#b)"/><path d="M125.665 45.968l53.134.088c13.274 0 13.775 17.63-.08 17.63h-35.433" fill="#FFF" mask="url(#b)"/><path d="M178.72 65.185h-35.435v-3h35.434c6.02 0 8.714-3.622 8.714-7.212 0-3.572-2.7-7.417-8.634-7.417l-53.137-.088.006-3 53.134.088c7.635 0 11.631 5.24 11.631 10.417 0 4.918-3.665 10.212-11.714 10.212" fill="#000" mask="url(#b)"/><path d="M179.262 55.053c0 4.792-3.448 6.486-6.073 7.087h5.673c2.786 0 5.084-.794 6.644-2.297 1.335-1.285 2.07-3.03 2.07-4.915 0-3.57-2.702-7.416-8.633-7.416h-6.948c2.612.432 7.267 1.976 7.267 7.541" fill="#E2E0D5" mask="url(#b)"/><path d="M231.964 1.5c9.785 0 17.717 7.932 17.717 17.718v123.635h-17.717V1.5" fill="#E8E7E8" mask="url(#b)"/><path d="M231.964 1.5c-9.784 0-17.716 7.932-17.716 17.718v123.635h17.716V1.5z" fill="#FFF" mask="url(#b)"/><path d="M249.681 144.353a1.5 1.5 0 01-1.5-1.5V19.217c0-8.942-7.274-16.217-16.217-16.217-8.94 0-16.216 7.275-16.216 16.217v123.636a1.5 1.5 0 11-3 0V19.217C212.748 8.622 221.37 0 231.964 0c10.596 0 19.217 8.622 19.217 19.217v123.636a1.5 1.5 0 01-1.5 1.5" fill="#010202" mask="url(#b)"/><path fill="#FFF" mask="url(#b)" d="M125.666 142.007h88.583V18.371h-88.583z"/><path d="M127.166 140.507h85.583V19.871h-85.583v120.636zm-3 3h91.583V16.871h-91.583v126.636z" fill="#010202" mask="url(#b)"/><path fill="#FFF" mask="url(#b)" d="M134.375 80.379h44.291"/><path d="M178.666 81.88h-44.291a1.5 1.5 0 010-3h44.29a1.5 1.5 0 010 3" fill="#E8E7E8" mask="url(#b)"/><path fill="#FFF" mask="url(#b)" d="M187.524 98.095h17.717"/><path d="M205.24 99.595h-17.716a1.5 1.5 0 010-3h17.717a1.5 1.5 0 010 3" fill="#E8E7E8" mask="url(#b)"/><path fill="#FFF" mask="url(#b)" d="M187.524 106.954h17.717"/><path d="M205.24 108.454h-17.716a1.5 1.5 0 010-3h17.717a1.5 1.5 0 010 3" fill="#E8E7E8" mask="url(#b)"/><path fill="#FFF" mask="url(#b)" d="M187.524 36.087h17.717"/><path d="M205.24 37.587h-17.716a1.5 1.5 0 010-3h17.717a1.5 1.5 0 010 3" fill="#E8E7E8" mask="url(#b)"/><path fill="#FFF" mask="url(#b)" d="M134.375 115.812h17.715"/><path d="M152.09 117.312h-17.716a1.5 1.5 0 010-3h17.716a1.5 1.5 0 010 3" fill="#E8E7E8" mask="url(#b)"/><path fill="#FFF" mask="url(#b)" d="M160.949 115.812h17.717"/><path d="M178.666 117.312h-17.718a1.5 1.5 0 010-3h17.718a1.5 1.5 0 010 3" fill="#E8E7E8" mask="url(#b)"/><path fill="#FFF" mask="url(#b)" d="M134.375 106.954h17.715"/><path d="M152.09 108.454h-17.716a1.5 1.5 0 010-3h17.716a1.5 1.5 0 010 3" fill="#E8E7E8" mask="url(#b)"/><path fill="#FFF" mask="url(#b)" d="M160.949 106.954h17.717"/><path d="M178.666 108.454h-17.718a1.5 1.5 0 010-3h17.718a1.5 1.5 0 010 3" fill="#E8E7E8" mask="url(#b)"/><path fill="#FFF" mask="url(#b)" d="M134.375 98.095h17.715"/><path d="M152.09 99.595h-17.716a1.5 1.5 0 010-3h17.716a1.5 1.5 0 010 3" fill="#E8E7E8" mask="url(#b)"/><path fill="#FFF" mask="url(#b)" d="M160.949 98.095h17.717"/><path d="M178.666 99.595h-17.718a1.5 1.5 0 010-3h17.718a1.5 1.5 0 010 3" fill="#E8E7E8" mask="url(#b)"/><path fill="#FFF" mask="url(#b)" d="M134.375 124.67h17.715"/><path d="M152.09 126.17h-17.716a1.5 1.5 0 010-3h17.716a1.5 1.5 0 010 3" fill="#E8E7E8" mask="url(#b)"/><path fill="#FFF" mask="url(#b)" d="M160.949 124.67h17.717"/><path d="M178.666 126.17h-17.718a1.5 1.5 0 010-3h17.718a1.5 1.5 0 010 3" fill="#E8E7E8" mask="url(#b)"/><path fill="#FFF" mask="url(#b)" d="M134.375 133.529h17.715"/><path d="M152.09 135.029h-17.716a1.5 1.5 0 010-3h17.716a1.5 1.5 0 010 3" fill="#E8E7E8" mask="url(#b)"/><path fill="#FFF" mask="url(#b)" d="M160.949 133.529h17.717"/><path d="M178.666 135.029h-17.718a1.5 1.5 0 010-3h17.718a1.5 1.5 0 010 3" fill="#E8E7E8" mask="url(#b)"/><path fill="#FFF" mask="url(#b)" d="M187.524 44.946h17.717"/><path d="M205.24 46.446h-17.716a1.5 1.5 0 010-3h17.717a1.5 1.5 0 010 3" fill="#E8E7E8" mask="url(#b)"/><path fill="#FFF" mask="url(#b)" d="M187.524 53.804h17.717"/><path d="M205.24 55.304h-17.716a1.5 1.5 0 010-3h17.717a1.5 1.5 0 010 3" fill="#E8E7E8" mask="url(#b)"/><path fill="#FFF" mask="url(#b)" d="M187.524 62.663h17.717"/><path d="M205.24 64.163h-17.716a1.5 1.5 0 010-3h17.717a1.5 1.5 0 010 3" fill="#E8E7E8" mask="url(#b)"/><path fill="#FFF" mask="url(#b)" d="M187.524 71.521h17.717"/><path d="M205.24 73.021h-17.716a1.5 1.5 0 010-3h17.717a1.5 1.5 0 010 3" fill="#E8E7E8" mask="url(#b)"/><path fill="#FFF" mask="url(#b)" d="M187.524 80.379h17.717"/><path d="M205.24 81.88h-17.716a1.5 1.5 0 010-3h17.717a1.5 1.5 0 010 3" fill="#E8E7E8" mask="url(#b)"/><path fill="#FFF" mask="url(#b)" d="M187.524 89.238h17.717"/><path d="M205.24 90.738h-17.716a1.5 1.5 0 010-3h17.717a1.5 1.5 0 010 3" fill="#E8E7E8" mask="url(#b)"/><path fill="#FFF" mask="url(#b)" d="M187.524 133.529h17.717"/><path d="M205.24 135.029h-17.716a1.5 1.5 0 010-3h17.717a1.5 1.5 0 010 3" fill="#E8E7E8" mask="url(#b)"/><path fill="#FFF" mask="url(#b)" d="M187.524 115.812h17.717"/><path d="M205.24 117.312h-17.716a1.5 1.5 0 010-3h17.717a1.5 1.5 0 010 3" fill="#E8E7E8" mask="url(#b)"/><path fill="#FFF" mask="url(#b)" d="M187.524 124.67h17.717"/><path d="M205.24 126.17h-17.716a1.5 1.5 0 010-3h17.717a1.5 1.5 0 010 3M134.274 36.42l44.392-.333v35.434h-44.291z" fill="#E8E7E8" mask="url(#b)"/><path d="M135.87 70.021h41.296V37.599l-41.388.31.093 32.112zm42.796 3h-44.291a1.5 1.5 0 01-1.5-1.496l-.101-35.101a1.5 1.5 0 011.489-1.504l44.39-.333a1.497 1.497 0 011.512 1.5v35.434a1.5 1.5 0 01-1.5 1.5zM240.822 14.968c-.312 0-.625-.097-.894-.296-.02-.015-2.834-2.004-7.963-2.004-5.13 0-7.944 1.99-7.971 2.01a1.506 1.506 0 01-2.093-.326 1.496 1.496 0 01.312-2.088c.142-.106 3.564-2.596 9.752-2.596 6.188 0 9.61 2.49 9.753 2.596a1.5 1.5 0 01-.896 2.704M240.822 24.357c-.312 0-.625-.097-.894-.296-.02-.015-2.834-2.004-7.963-2.004-5.13 0-7.944 1.989-7.971 2.01a1.508 1.508 0 01-2.093-.326 1.496 1.496 0 01.312-2.088c.142-.106 3.564-2.596 9.752-2.596 6.188 0 9.61 2.49 9.753 2.596a1.5 1.5 0 01-.896 2.704M240.822 33.747c-.312 0-.625-.097-.894-.296-.02-.015-2.834-2.005-7.963-2.005-5.123 0-7.936 1.985-7.963 2.005a1.5 1.5 0 11-1.789-2.408c.142-.106 3.563-2.597 9.752-2.597s9.61 2.49 9.753 2.597a1.5 1.5 0 01-.896 2.704M240.822 43.135c-.312 0-.625-.097-.894-.296-.02-.015-2.834-2.004-7.963-2.004-5.13 0-7.944 1.99-7.971 2.01a1.508 1.508 0 01-2.093-.326 1.496 1.496 0 01.312-2.088c.142-.106 3.564-2.596 9.752-2.596 6.188 0 9.61 2.49 9.753 2.596a1.5 1.5 0 01-.896 2.704M240.822 52.524c-.312 0-.625-.097-.894-.296-.02-.015-2.834-2.004-7.963-2.004-5.13 0-7.944 1.989-7.971 2.01a1.507 1.507 0 01-2.093-.326 1.496 1.496 0 01.312-2.088c.142-.106 3.564-2.596 9.752-2.596 6.188 0 9.61 2.49 9.753 2.596a1.5 1.5 0 01-.896 2.704M240.822 61.913c-.312 0-.625-.097-.894-.296-.02-.015-2.834-2.004-7.963-2.004-5.13 0-7.944 1.989-7.971 2.01a1.506 1.506 0 01-2.093-.326 1.496 1.496 0 01.312-2.088c.142-.106 3.564-2.596 9.752-2.596 6.188 0 9.61 2.49 9.753 2.596a1.5 1.5 0 01-.896 2.704M240.822 71.302c-.312 0-.625-.097-.894-.296-.02-.015-2.834-2.005-7.963-2.005-5.123 0-7.936 1.985-7.963 2.005a1.5 1.5 0 11-1.789-2.408c.142-.106 3.563-2.597 9.752-2.597s9.61 2.491 9.753 2.597a1.5 1.5 0 01-.896 2.704M240.822 80.69c-.312 0-.625-.096-.894-.295-.02-.015-2.834-2.004-7.963-2.004-5.13 0-7.944 1.989-7.971 2.01a1.506 1.506 0 01-2.093-.326 1.496 1.496 0 01.312-2.088c.142-.106 3.564-2.596 9.752-2.596 6.188 0 9.61 2.49 9.753 2.596a1.5 1.5 0 01-.896 2.704M240.822 90.08c-.312 0-.625-.097-.894-.296-.02-.015-2.834-2.004-7.963-2.004-5.13 0-7.944 1.989-7.971 2.01a1.508 1.508 0 01-2.093-.326 1.496 1.496 0 01.312-2.088c.142-.106 3.564-2.596 9.752-2.596 6.188 0 9.61 2.49 9.753 2.596a1.5 1.5 0 01-.896 2.704M240.822 99.468c-.312 0-.625-.097-.894-.296-.02-.015-2.834-2.004-7.963-2.004-5.13 0-7.944 1.99-7.971 2.01a1.507 1.507 0 01-2.093-.326 1.496 1.496 0 01.312-2.088c.142-.106 3.564-2.596 9.752-2.596 6.188 0 9.61 2.49 9.753 2.596a1.5 1.5 0 01-.896 2.704M240.822 108.858c-.312 0-.625-.097-.894-.296-.02-.015-2.834-2.005-7.963-2.005-5.123 0-7.936 1.985-7.963 2.005a1.5 1.5 0 11-1.789-2.408c.142-.106 3.563-2.597 9.752-2.597s9.61 2.49 9.753 2.597a1.5 1.5 0 01-.896 2.704M240.822 118.247c-.312 0-.625-.097-.894-.296-.02-.015-2.834-2.004-7.963-2.004-5.13 0-7.944 1.989-7.971 2.01a1.508 1.508 0 01-2.093-.326 1.496 1.496 0 01.312-2.088c.142-.106 3.564-2.596 9.752-2.596 6.188 0 9.61 2.49 9.753 2.596a1.5 1.5 0 01-.896 2.704" fill="#E8E7E8" mask="url(#b)"/><path d="M240.822 14.968a1.5 1.5 0 00.896-2.704c-.143-.107-3.566-2.596-9.753-2.596v3c5.129 0 7.944 1.99 7.963 2.004.269.2.582.296.894.296M240.822 24.358a1.499 1.499 0 00.896-2.704c-.143-.106-3.566-2.597-9.753-2.597v3c5.128 0 7.943 1.99 7.963 2.005.269.199.582.296.894.296M240.822 33.747a1.5 1.5 0 00.896-2.704c-.143-.107-3.566-2.596-9.753-2.596v3c5.129 0 7.944 1.989 7.963 2.004.269.199.582.296.894.296M240.822 43.135a1.5 1.5 0 00.896-2.704c-.143-.107-3.566-2.596-9.753-2.596v3c5.129 0 7.944 1.99 7.963 2.004.269.2.582.296.894.296M240.822 52.524a1.5 1.5 0 00.896-2.704c-.143-.107-3.566-2.596-9.753-2.596v3c5.129 0 7.944 1.989 7.963 2.004.269.199.582.296.894.296M240.822 61.914a1.499 1.499 0 00.896-2.704c-.143-.106-3.566-2.597-9.753-2.597v3c5.128 0 7.943 1.99 7.963 2.005.269.199.582.296.894.296M240.822 71.302a1.5 1.5 0 00.896-2.704c-.143-.107-3.566-2.596-9.753-2.596v3c5.129 0 7.944 1.99 7.963 2.004.269.2.582.296.894.296M240.822 80.69a1.5 1.5 0 00.896-2.704c-.143-.106-3.566-2.595-9.753-2.595v3c5.129 0 7.944 1.989 7.963 2.004.269.199.582.296.894.296M240.822 90.08a1.5 1.5 0 00.896-2.704c-.143-.107-3.566-2.596-9.753-2.596v3c5.129 0 7.944 1.989 7.963 2.004.269.199.582.296.894.296M240.822 99.47a1.499 1.499 0 00.896-2.705c-.143-.106-3.566-2.597-9.753-2.597v3c5.128 0 7.943 1.99 7.963 2.005.269.2.582.296.894.296M240.822 108.858a1.5 1.5 0 00.896-2.704c-.143-.107-3.566-2.596-9.753-2.596v3c5.129 0 7.944 1.989 7.963 2.004.269.199.582.296.894.296M240.822 118.247a1.5 1.5 0 00.896-2.704c-.143-.107-3.566-2.596-9.753-2.596v3c5.129 0 7.944 1.989 7.963 2.004.269.199.582.296.894.296M214.249 142.387c0-9.785 7.931-17.717 17.715-17.717 9.786 0 17.718 7.932 17.718 17.717 0 9.784-7.932 17.717-17.718 17.717h-88.582l-.096-17.717h70.963z" fill="#B6B6B6" mask="url(#b)"/><path d="M144.875 158.604h87.09c8.941 0 16.216-7.274 16.216-16.217 0-8.942-7.275-16.217-16.217-16.217-8.941 0-16.215 7.275-16.215 16.217v1.5h-70.956l.082 14.717zm87.09 3H141.89l-.112-20.717h71.029c.767-9.898 9.067-17.717 19.157-17.717 10.596 0 19.218 8.622 19.218 19.217 0 10.596-8.621 19.217-19.218 19.217z" fill="#010202" mask="url(#b)"/><path fill="#FFF" mask="url(#b)" d="M134.375 27.23l70.865.332"/><path d="M205.24 29.062h-.006l-70.866-.332a1.5 1.5 0 01.007-3h.007l70.866.332a1.5 1.5 0 01-.007 3" fill="#E8E7E8" mask="url(#b)"/><path d="M125.665 54.65l-.149-9.704h8.859c10.535 0 17.715-9.363 17.715-17.716h-26.574c-26.576 0-26.576 26.574-53.15 26.574" fill="#FFF" mask="url(#b)"/><path d="M72.366 55.304v-3c12.666 0 18.907-6.24 25.514-12.848 6.748-6.748 13.727-13.726 27.636-13.726h28.074v1.5c0 9.09-7.89 19.216-19.216 19.216h-7.335l.126 8.18-3 .047V43.446h10.21c8.936 0 15.34-7.474 16.132-14.716h-24.99c-12.667 0-18.908 6.24-25.516 12.847-6.748 6.748-13.726 13.727-27.635 13.727" fill="#000" mask="url(#b)"/><path d="M134.225 35.575c-.69 0 1.663 0 0 0-8.858 0-10.038 4.942-10.038 8.104l10.187 1.267c9.688 0 17.716-8.534 17.716-17.716h-8.857c-.1 3.856-5.116 8.345-9.008 8.345" fill="#E2E0D5" mask="url(#b)"/><path d="M134.274 37.92h-1.517l.118-10.707 3 .033-.082 7.498c3.302-.767 5.94-3.95 5.94-7.514h3c0 5.794-4.79 10.69-10.46 10.69" fill="#B6B6B6" mask="url(#b)"/><path d="M72.366 55.304v-3c12.666 0 18.907-6.24 25.514-12.848 6.748-6.748 13.727-13.726 27.636-13.726h28.074v1.5c0 9.09-7.89 19.216-19.216 19.216h-7.209v8.18l-3 .047V43.446h10.21c8.936 0 15.34-7.474 16.132-14.716h-24.99c-12.667 0-18.908 6.24-25.516 12.847-6.748 6.748-13.726 13.727-27.635 13.727" fill="#000" mask="url(#b)"/></g></svg>
